Coordinates
version=1
nRows=17
nColumns=24
inDegrees=yes

Units are S.I. units (second, meters, Newtons, ...)
Angles are in degrees.

endheader
time	pelvis_tilt	pelvis_list	pelvis_rotation	pelvis_tx	pelvis_ty	pelvis_tz	hip_flexion_r	hip_adduction_r	hip_rotation_r	knee_angle_r	ankle_angle_r	subtalar_angle_r	mtp_angle_r	hip_flexion_l	hip_adduction_l	hip_rotation_l	knee_angle_l	ankle_angle_l	subtalar_angle_l	mtp_angle_l	lumbar_extension	lumbar_bending	lumbar_rotation
      1.12100000	     -1.19394025	      0.03055209	     -5.33634348	     -0.12315891	      0.99453090	      0.33486877	    -15.42726112	      3.17527321	      2.84146137	     -8.33937087	     11.45577069	     -9.23319782	      5.57984794	     21.93660969	      0.59651379	     -8.89823821	      3.63346067	      2.53040413	     -8.09017510	      7.44804175	     -2.61618534	     -0.11270310	     13.17195485
      1.12516667	     -1.16517491	      0.11148020	     -5.38907936	     -0.11714485	      0.99406457	      0.33476983	    -15.55251846	      3.01872299	      2.75730543	     -8.85474812	     11.46756981	     -8.97532244	      5.71113423	     21.95052619	      0.73589660	     -8.72333200	      3.23022212	      2.42859802	     -8.44169299	      7.45093039	     -2.60332468	     -0.21903917	     13.28429115
      1.12933333	     -1.14799657	      0.21130878	     -5.44787243	     -0.11109133	      0.99361368	      0.33470756	    -15.65460550	      2.84650972	      2.71726251	     -9.39044597	     11.45106799	     -8.79897281	      5.82879384	     21.97519790	      0.88652240	     -8.50764974	      2.76802822	      2.37094371	     -8.76391548	      7.46586558	     -2.57328195	     -0.37108756	     13.38242113
      1.13350000	     -1.12192024	      0.30920194	     -5.50698173	     -0.10501991	      0.99320932	      0.33461230	    -15.73970731	      2.66845840	      2.61881443	     -9.97433143	     11.42386476	     -8.51872503	      6.02456917	     21.98343245	      1.03790858	     -8.25399188	      2.28130755	      2.15171881	     -9.20390128	      7.50337198	     -2.54964811	     -0.49571636	     13.50050174
      1.13766667	     -1.12551767	      0.43135224	     -5.56607893	     -0.09888533	      0.99279886	      0.33455377	    -15.78430331	      2.47360678	      2.56135225	    -10.57430100	     11.35298680	     -8.34673224	      6.18261923	     22.02604703	      1.20598957	     -7.98161319	      1.73660489	      2.00232639	     -9.56607700	      7.54248644	     -2.48006006	     -0.67844268	     13.59856597
      1.14183333	     -1.10794415	      0.55449746	     -5.62862938	     -0.09274281	      0.99244771	      0.33447128	    -15.82252383	      2.26893710	      2.45988079	    -11.22745083	     11.27297349	     -8.09114982	      6.38457535	     22.03572243	      1.37880010	     -7.67722801	      1.18590691	      1.73158166	    -10.01954999	      7.59819989	     -2.43728865	     -0.84542513	     13.71386149
      1.14600000	     -1.09564711	      0.68417046	     -5.68941377	     -0.08656510	      0.99212234	      0.33438376	    -15.83910385	      2.05811567	      2.36155312	    -11.90922767	     11.15995895	     -7.84663202	      6.62018485	     22.04674659	      1.55759588	     -7.35300669	      0.61456707	      1.41412839	    -10.48484471	      7.66870900	     -2.38162351	     -1.02122038	     13.81727213
      1.15016667	     -1.09399859	      0.82240993	     -5.75227519	     -0.08035447	      0.99182540	      0.33429406	    -15.82194955	      1.83742811	      2.26153827	    -12.62931052	     11.00849607	     -7.61716221	      6.87454944	     22.06716165	      1.74206916	     -7.03162423	      0.02187448	      1.05951788	    -10.94122281	      7.74651976	     -2.30825371	     -1.20617138	     13.91397367
      1.15433333	     -1.07747524	      0.96776257	     -5.81465122	     -0.07412719	      0.99158033	      0.33419264	    -15.79378553	      1.60417797	      2.13595842	    -13.39655509	     10.83798180	     -7.34661082	      7.17680077	     22.06416661	      1.93622620	     -6.69696405	     -0.57185583	      0.65597529	    -11.43028619	      7.83975253	     -2.24845782	     -1.40250977	     14.01592136
      1.15850000	     -1.07786934	      1.11770109	     -5.87654649	     -0.06787422	      0.99135462	      0.33408507	    -15.72428327	      1.36740553	      2.01855830	    -14.20328972	     10.62042707	     -7.09994779	      7.50342096	     22.08040942	      2.13059844	     -6.38009823	     -1.18473020	      0.23237650	    -11.88767706	      7.93817219	     -2.16764415	     -1.60200708	     14.10092352
      1.16266667	     -1.05939674	      1.24213545	     -5.92603961	     -0.06165442	      0.99118649	      0.33395434	    -15.65592357	      1.16183212	      1.92740431	    -15.03192211	     10.26702551	     -7.08208584	     13.53489520	     22.07093625	      2.30610328	     -6.00387659	     -1.79286058	     -0.26282427	    -12.46040035	      9.74246624	     -2.11805566	     -1.76700985	     14.11847893
      1.16683333	     -1.00809196	      1.41646442	     -5.99722684	     -0.05536820	      0.99110197	      0.33380975	    -15.57152391	      0.87537071	      1.73255933	    -15.95977138	     10.00914194	     -6.68214707	     13.59924043	     22.03526095	      2.52133746	     -5.81656115	     -2.43311884	     -0.66762138	    -12.74561791	      9.75960899	     -2.09413257	     -1.98366339	     14.24211282
      1.17100000	     -1.00530028	      1.58587472	     -6.05404680	     -0.04907527	      0.99099187	      0.33366000	    -15.41205058	      0.60782457	      1.57572948	    -16.92659016	      9.69318999	     -6.40130835	     13.71272166	     22.04476958	      2.73027859	     -5.57023091	     -3.06775345	     -1.11331917	    -13.12351147	      9.78290518	     -2.00651625	     -2.20194020	     14.30893696
      1.17516667	     -0.97839976	      1.75944312	     -6.10195595	     -0.04278430	      0.99094789	      0.33347613	    -15.24970827	      0.33062046	      1.39874523	    -17.94025488	      9.34519182	     -6.09939843	     13.89338457	     22.02994397	      2.94774976	     -5.34248386	     -3.70968016	     -1.55529359	    -13.50129863	      9.81345168	     -1.95082632	     -2.42665264	     14.36700865
      1.17933333	     -0.94848952	      1.93941563	     -6.14954903	     -0.03648031	      0.99094655	      0.33329215	    -15.05940239	      0.04350428	      1.22402254	    -19.00361144	      8.93119610	     -5.82953035	     14.10025975	     22.00940918	      3.16553667	     -5.17078989	     -4.35229162	     -1.96962892	    -13.78657227	      9.84292232	     -1.89024145	     -2.66010251	     14.40525924
      1.18350000	     -0.91652368	      2.12025172	     -6.17032000	     -0.03019008	      0.99097703	      0.33306880	    -14.84948042	     -0.23854672	      1.04527475	    -20.09360400	      8.43683447	     -5.69050284	     18.32492287	     21.99104377	      3.39328716	     -4.96250464	     -5.00782753	     -2.38580407	    -14.16284360	     10.39338986	     -1.83726709	     -2.91304273	     14.38788274
      1.18766667	     -0.86081644	      2.30656669	     -6.21117431	     -0.02390625	      0.99108287	      0.33283832	    -14.61777465	     -0.54789376	      0.84425616	    -21.26271943	      7.93295333	     -5.33510134	     18.38550746	     21.95846995	      3.60946430	     -4.92615387	     -5.69261710	     -2.71079719	    -14.26372278	     10.39516553	     -1.81153936	     -3.14160124	     14.43976449
